<?xml version="1.0" standalone="no"?>
<!DOCTYPE svg PUBLIC "-//W3C//DTD SVG 20010904//EN"
 "http://www.w3.org/TR/2001/REC-SVG-20010904/DTD/svg10.dtd">
<svg version="1.0" xmlns="http://www.w3.org/2000/svg"
 width="240.000000pt" height="240.000000pt" viewBox="0 0 240.000000 240.000000"
 preserveAspectRatio="xMidYMid meet">

<g transform="translate(0.000000,240.000000) scale(0.100000,-0.100000)"
fill="#000000" stroke="none">
<path d="M2 2389 c3 -8 140 -546 304 -1196 164 -651 302 -1183 306 -1183 4 0
1471 1406 1751 1679 l38 37 -1188 333 c-653 184 -1194 336 -1202 339 -10 4
-13 1 -9 -9z m322 -109 c137 -38 250 -71 252 -72 4 -5 -387 -378 -396 -378 -4
0 -35 111 -69 248 -34 136 -64 255 -67 265 -5 15 -2 18 13 13 10 -3 130 -37
267 -76z m579 -162 c141 -39 257 -75 257 -78 0 -10 -390 -383 -395 -379 -2 3
-31 115 -65 249 -33 135 -63 253 -66 263 -3 9 -2 17 3 17 4 0 124 -32 266 -72z
m-232 -209 l67 -260 -26 6 c-117 26 -505 142 -502 150 4 17 382 376 389 370 3
-4 36 -123 72 -266z m794 51 c121 -34 235 -66 254 -72 l33 -10 -73 -75 c-41
-41 -131 -128 -200 -193 l-126 -119 -67 262 c-36 144 -66 265 -66 269 0 4 6 5
13 3 6 -2 111 -32 232 -65z m-205 -218 c34 -134 60 -247 58 -251 -3 -7 -515
132 -525 142 -2 3 85 90 194 196 160 154 199 187 205 173 4 -9 35 -126 68
-260z m833 42 c136 -38 246 -72 245 -76 -5 -14 -390 -380 -395 -375 -6 6 -133
497 -133 516 0 8 7 11 18 9 9 -3 128 -36 265 -74z m-304 29 c47 -179 121 -486
118 -490 -5 -4 -517 137 -527 144 -5 5 381 382 392 382 4 1 12 -16 17 -36z
m-1324 -119 c132 -36 244 -69 248 -74 8 -7 -369 -380 -384 -380 -3 0 -34 109
-68 243 -33 133 -64 253 -67 266 -6 19 -4 22 12 18 10 -4 127 -36 259 -73z
m588 -165 c139 -39 254 -73 256 -75 5 -4 -347 -349 -379 -371 -15 -11 -23 12
-83 247 -37 142 -67 261 -67 265 0 10 23 5 273 -66z m-235 -203 c36 -141 63
-259 61 -261 -4 -3 -470 123 -519 141 -10 4 47 65 180 194 107 104 199 188
205 186 5 -1 38 -118 73 -260z m822 39 c135 -38 249 -71 253 -75 4 -4 -82 -94
-193 -200 -110 -106 -200 -190 -200 -186 0 3 -29 120 -65 259 -36 139 -65 259
-65 266 0 7 6 11 13 8 6 -2 122 -35 257 -72z m-230 -212 c33 -133 60 -245 60
-248 0 -3 -5 -5 -12 -5 -25 0 -518 143 -516 150 2 4 91 91 198 194 162 156
196 184 202 169 4 -10 35 -127 68 -260z m-788 -49 c137 -38 248 -72 248 -75 0
-10 -390 -383 -394 -378 -5 4 -136 511 -136 524 0 4 8 5 18 3 9 -3 128 -36
264 -74z m597 -169 c129 -36 236 -67 238 -69 4 -4 -216 -221 -338 -334 -54
-50 -57 -51 -63 -30 -19 67 -126 499 -126 507 0 6 10 7 28 1 15 -5 132 -39
261 -75z m-249 -204 c34 -134 59 -247 58 -251 -2 -6 -220 51 -478 126 l-55 16
200 194 c160 155 201 190 207 176 4 -9 35 -127 68 -261z m-192 -218 c133 -37
242 -70 242 -73 0 -10 -391 -382 -396 -377 -6 5 -133 503 -134 521 0 10 -18
14 288 -71z"/>
</g>
</svg>
