<?xml version="1.0" standalone="no"?>
<!DOCTYPE svg PUBLIC "-//W3C//DTD SVG 20010904//EN"
 "http://www.w3.org/TR/2001/REC-SVG-20010904/DTD/svg10.dtd">
<svg version="1.0" xmlns="http://www.w3.org/2000/svg"
 width="1000.000000pt" height="1258.000000pt" viewBox="0 0 1000.000000 1258.000000"
 preserveAspectRatio="xMidYMid meet">

<g transform="translate(0.000000,1258.000000) scale(0.100000,-0.100000)"
fill="#000000" stroke="none">
<path d="M280 6290 l0 -5980 4720 0 4720 0 0 5980 0 5980 -4720 0 -4720 0 0
-5980z m8850 0 l0 -5390 -4130 0 -4130 0 0 5390 0 5390 4130 0 4130 0 0 -5390z"/>
<path d="M4915 10794 c-496 -40 -973 -168 -1344 -360 -987 -512 -1600 -1618
-1771 -3193 -37 -346 -45 -517 -45 -1011 0 -580 21 -902 85 -1322 161 -1057
566 -1901 1155 -2407 455 -391 986 -605 1735 -698 183 -22 812 -26 980 -5 640
79 1091 259 1505 599 319 262 587 606 856 1098 124 226 181 351 166 363 -7 5
-120 71 -252 147 -132 76 -458 264 -724 417 -266 153 -484 277 -486 276 -1 -2
-18 -55 -39 -118 -52 -159 -137 -365 -201 -488 -283 -542 -795 -795 -1485
-731 -396 36 -702 170 -945 414 -56 55 -126 138 -157 185 -162 245 -259 556
-288 930 -16 207 -9 2813 9 2925 70 462 198 753 436 990 246 247 545 377 955
416 145 14 380 7 515 -16 407 -66 715 -283 886 -624 48 -97 125 -307 174 -476
21 -71 39 -132 41 -134 5 -6 1544 792 1544 801 0 16 -101 233 -170 365 -356
681 -815 1159 -1341 1394 -264 119 -539 192 -894 240 -121 17 -217 21 -500 24
-192 1 -372 1 -400 -1z"/>
</g>
</svg>
