<svg id="svg" version="1.1" xmlns="http://www.w3.org/2000/svg" xmlns:xlink="http://www.w3.org/1999/xlink" width="400" height="503.2" viewBox="0, 0, 400,503.2"><g id="svgg"><path id="path0" d="M11.600 251.600 L 11.600 490.800 200.000 490.800 L 388.400 490.800 388.400 251.600 L 388.400 12.400 200.000 12.400 L 11.600 12.400 11.600 251.600 M365.200 251.600 L 365.200 467.600 200.000 467.600 L 34.800 467.600 34.800 251.600 L 34.800 35.600 200.000 35.600 L 365.200 35.600 365.200 251.600 M198.400 71.440 C 137.945 76.570,102.167 104.841,82.782 162.800 C 65.769 213.664,65.586 292.976,82.364 343.200 C 102.407 403.192,143.237 431.709,209.200 431.785 C 266.199 431.850,299.338 410.453,326.613 355.974 L 329.978 349.252 328.689 348.473 C 323.477 345.325,271.609 315.600,271.327 315.600 C 271.131 315.600,270.369 317.445,269.634 319.700 C 258.117 355.048,241.021 369.077,209.600 368.967 C 173.047 368.838,152.030 350.001,146.712 312.600 C 145.968 307.371,145.968 195.829,146.712 190.600 C 149.713 169.492,156.918 155.602,169.970 145.762 C 187.343 132.665,218.363 129.948,238.200 139.785 C 252.667 146.959,259.755 157.664,266.680 182.800 C 266.893 183.570,267.254 184.163,267.483 184.117 C 267.891 184.035,328.439 152.849,328.766 152.552 C 329.287 152.079,321.661 136.797,316.907 128.790 C 296.053 93.658,270.349 76.834,230.400 72.168 C 225.299 71.573,202.857 71.062,198.400 71.440 " stroke="none" fill="#041424" fill-rule="evenodd"></path><path id="path1" d="M0.000 251.600 L 0.000 502.800 200.000 502.800 L 400.000 502.800 400.000 251.600 L 400.000 0.400 200.000 0.400 L 0.000 0.400 0.000 251.600 M388.800 251.600 L 388.800 490.800 200.000 490.800 L 11.200 490.800 11.200 251.600 L 11.200 12.400 200.000 12.400 L 388.800 12.400 388.800 251.600 M34.800 251.600 L 34.800 467.200 200.000 467.200 L 365.200 467.200 365.200 251.600 L 365.200 36.000 200.000 36.000 L 34.800 36.000 34.800 251.600 M220.600 71.213 C 268.367 74.058,296.411 91.748,320.136 133.998 C 322.743 138.643,329.370 152.378,329.114 152.607 C 328.698 152.978,267.545 184.400,267.240 184.400 C 267.029 184.400,266.568 183.365,266.216 182.100 C 256.881 148.600,244.147 136.496,216.044 134.411 C 176.389 131.469,151.462 152.392,146.719 192.600 C 145.967 198.979,145.967 304.221,146.719 310.600 C 151.241 348.934,172.778 368.830,209.800 368.873 C 240.433 368.909,257.633 354.966,269.006 320.879 C 270.497 316.410,271.045 315.209,271.513 315.388 C 272.159 315.636,329.678 348.755,329.985 349.056 C 330.625 349.682,319.422 370.268,313.826 378.748 C 288.062 417.795,252.307 434.724,201.241 432.056 C 111.343 427.358,68.754 367.812,70.113 248.722 C 71.498 127.491,124.083 65.464,220.600 71.213 " stroke="none" fill="#fbfbfb" fill-rule="evenodd"></path><path id="path2" d="M205.507 71.090 C 206.226 71.179,207.306 71.177,207.907 71.086 C 208.508 70.995,207.920 70.922,206.600 70.924 C 205.280 70.926,204.788 71.001,205.507 71.090 M212.100 71.091 C 212.925 71.178,214.275 71.178,215.100 71.091 C 215.925 71.005,215.250 70.934,213.600 70.934 C 211.950 70.934,211.275 71.005,212.100 71.091 M205.700 134.276 C 206.085 134.376,206.715 134.376,207.100 134.276 C 207.485 134.175,207.170 134.093,206.400 134.093 C 205.630 134.093,205.315 134.175,205.700 134.276 M70.093 237.200 C 70.093 237.970,70.175 238.285,70.276 237.900 C 70.376 237.515,70.376 236.885,70.276 236.500 C 70.175 236.115,70.093 236.430,70.093 237.200 M70.101 271.000 C 70.105 271.880,70.187 272.193,70.283 271.695 C 70.379 271.198,70.375 270.478,70.275 270.095 C 70.175 269.713,70.096 270.120,70.101 271.000 M250.575 354.100 L 249.400 355.400 250.700 354.225 C 251.415 353.579,252.000 352.994,252.000 352.925 C 252.000 352.616,251.670 352.888,250.575 354.100 M205.905 369.083 C 206.402 369.179,207.122 369.175,207.505 369.075 C 207.887 368.975,207.480 368.896,206.600 368.901 C 205.720 368.905,205.407 368.987,205.905 369.083 M212.500 369.076 C 212.885 369.176,213.515 369.176,213.900 369.076 C 214.285 368.975,213.970 368.893,213.200 368.893 C 212.430 368.893,212.115 368.975,212.500 369.076 M296.386 400.300 L 294.200 402.600 296.500 400.414 C 298.637 398.382,298.983 398.000,298.686 398.000 C 298.624 398.000,297.589 399.035,296.386 400.300 M205.091 432.289 C 205.801 432.377,207.061 432.379,207.891 432.292 C 208.721 432.205,208.140 432.133,206.600 432.131 C 205.060 432.129,204.381 432.200,205.091 432.289 M211.700 432.291 C 212.525 432.378,213.875 432.378,214.700 432.291 C 215.525 432.205,214.850 432.134,213.200 432.134 C 211.550 432.134,210.875 432.205,211.700 432.291 " stroke="none" fill="#9da5ab" fill-rule="evenodd"></path><path id="path3" d="M11.399 251.600 C 11.399 383.270,11.444 437.135,11.500 371.300 C 11.556 305.465,11.556 197.735,11.500 131.900 C 11.444 66.065,11.399 119.930,11.399 251.600 M388.599 251.600 C 388.599 383.270,388.644 437.135,388.700 371.300 C 388.756 305.465,388.756 197.735,388.700 131.900 C 388.644 66.065,388.599 119.930,388.599 251.600 M117.300 35.900 C 162.785 35.956,237.215 35.956,282.700 35.900 C 328.185 35.844,290.970 35.798,200.000 35.798 C 109.030 35.798,71.815 35.844,117.300 35.900 M116.185 105.300 L 114.200 107.400 116.300 105.415 C 117.455 104.323,118.400 103.378,118.400 103.315 C 118.400 103.017,118.029 103.349,116.185 105.300 M249.800 148.000 C 250.659 148.880,251.452 149.600,251.562 149.600 C 251.672 149.600,251.059 148.880,250.200 148.000 C 249.341 147.120,248.548 146.400,248.438 146.400 C 248.328 146.400,248.941 147.120,249.800 148.000 M70.109 240.800 C 70.109 241.790,70.187 242.195,70.282 241.700 C 70.378 241.205,70.378 240.395,70.282 239.900 C 70.187 239.405,70.109 239.810,70.109 240.800 M70.101 267.400 C 70.105 268.280,70.187 268.593,70.283 268.095 C 70.379 267.598,70.375 266.878,70.275 266.495 C 70.175 266.113,70.096 266.520,70.101 267.400 M117.300 467.500 C 162.785 467.556,237.215 467.556,282.700 467.500 C 328.185 467.444,290.970 467.398,200.000 467.398 C 109.030 467.398,71.815 467.444,117.300 467.500 " stroke="none" fill="#7c848c" fill-rule="evenodd"></path><path id="path4" d="" stroke="none" fill="#828c94" fill-rule="evenodd"></path></g></svg>