<?xml version="1.0" encoding="UTF-8"?>
<svg xmlns="http://www.w3.org/2000/svg" xmlns:xlink="http://www.w3.org/1999/xlink" width="294px" height="294px" viewBox="0 0 294 294" version="1.1">
<defs>
<clipPath id="clip1">
  <path d="M 44.101562 168.75 L 249.664062 168.75 L 249.664062 213.9375 L 44.101562 213.9375 Z M 44.101562 168.75 "/>
</clipPath>
<clipPath id="clip2">
  <path d="M 107.902344 80.167969 L 185.855469 80.167969 L 185.855469 158.066406 L 107.902344 158.066406 Z M 107.902344 80.167969 "/>
</clipPath>
<filter id="alpha" filterUnits="objectBoundingBox" x="0%" y="0%" width="100%" height="100%">
  <feColorMatrix type="matrix" in="SourceGraphic" values="0 0 0 0 1 0 0 0 0 1 0 0 0 0 1 0 0 0 1 0"/>
</filter>
<mask id="mask0">
  <g filter="url(#alpha)">
<rect x="0" y="0" width="294" height="294" style="fill:rgb(0%,0%,0%);fill-opacity:0.501961;stroke:none;"/>
  </g>
</mask>
<clipPath id="clip3">
  <rect x="0" y="0" width="294" height="294"/>
</clipPath>
<g id="surface5" clip-path="url(#clip3)">
<path style=" stroke:none;fill-rule:nonzero;fill:rgb(36.862745%,73.72549%,40.392157%);fill-opacity:1;" d="M 107.902344 87.1875 L 178.785156 87.1875 L 178.785156 158.070312 L 107.902344 158.070312 Z M 107.902344 87.1875 "/>
</g>
<clipPath id="clip4">
  <path d="M 118.007812 95.871094 L 168 95.871094 L 168 114 L 118.007812 114 Z M 118.007812 95.871094 "/>
</clipPath>
<clipPath id="clip5">
  <path d="M 168 125 L 175.75 125 L 175.75 142.3125 L 168 142.3125 Z M 168 125 "/>
</clipPath>
</defs>
<g id="surface1">
<rect x="0" y="0" width="294" height="294" style="fill:rgb(100%,100%,100%);fill-opacity:1;stroke:none;"/>
<g clip-path="url(#clip1)" clip-rule="nonzero">
<path style=" stroke:none;fill-rule:nonzero;fill:rgb(1.960784%,14.509804%,30.588235%);fill-opacity:1;" d="M 66.222656 213.992188 C 59.148438 213.992188 53.695312 212.195312 49.863281 208.605469 C 46.023438 205.011719 44.105469 199.269531 44.105469 191.371094 C 44.105469 176.289062 51.441406 168.75 66.109375 168.75 C 69.664062 168.75 72.96875 169.179688 76.023438 170.039062 C 79.070312 170.902344 81.339844 171.855469 82.835938 172.902344 L 82.835938 186.9375 L 69.367188 186.9375 L 69.367188 182.894531 C 69.367188 181.472656 69.046875 180.425781 68.410156 179.75 C 67.773438 179.078125 66.820312 178.742188 65.546875 178.742188 C 64.277344 178.742188 63.320312 179.078125 62.6875 179.75 C 62.050781 180.425781 61.730469 181.472656 61.730469 182.894531 L 61.730469 199.847656 C 61.730469 201.269531 62.050781 202.316406 62.6875 202.992188 C 63.320312 203.664062 64.277344 204 65.546875 204 C 66.820312 204 67.773438 203.664062 68.410156 202.992188 C 69.046875 202.316406 69.367188 201.269531 69.367188 199.847656 L 69.367188 195.300781 L 82.835938 195.300781 L 82.835938 209.839844 C 81.304688 210.886719 79.03125 211.839844 76.023438 212.703125 C 73.007812 213.5625 69.738281 213.992188 66.222656 213.992188 Z M 119.660156 204 L 122.132812 204 L 122.132812 213.207031 L 104.394531 213.207031 L 104.394531 204 L 106.75 204 L 106.75 194.796875 C 106.75 193.5625 106.488281 192.65625 105.964844 192.078125 C 105.441406 191.496094 104.65625 191.203125 103.605469 191.203125 C 101.363281 191.203125 100.238281 192.402344 100.238281 194.796875 L 100.238281 204 L 102.597656 204 L 102.597656 213.207031 L 84.859375 213.207031 L 84.859375 204 L 87.328125 204 L 87.328125 178.742188 L 84.859375 178.742188 L 84.859375 169.535156 L 100.238281 169.535156 L 100.238281 186.375 C 101.625 184.652344 103.121094 183.363281 104.730469 182.503906 C 106.339844 181.640625 108.210938 181.210938 110.34375 181.210938 C 113.449219 181.210938 115.777344 182.183594 117.328125 184.128906 C 118.882812 186.078125 119.660156 188.75 119.660156 192.15625 Z M 158.730469 204 L 161.199219 204 L 161.199219 213.207031 L 143.460938 213.207031 L 143.460938 204 L 145.820312 204 L 145.820312 194.796875 C 145.820312 193.5625 145.558594 192.65625 145.035156 192.078125 C 144.511719 191.496094 143.722656 191.203125 142.675781 191.203125 C 140.429688 191.203125 139.308594 192.402344 139.308594 194.796875 L 139.308594 204 L 141.664062 204 L 141.664062 213.207031 L 123.925781 213.207031 L 123.925781 204 L 126.398438 204 L 126.398438 178.742188 L 123.925781 178.742188 L 123.925781 169.535156 L 139.308594 169.535156 L 139.308594 186.375 C 140.691406 184.652344 142.191406 183.363281 143.800781 182.503906 C 145.40625 181.640625 147.277344 181.210938 149.414062 181.210938 C 152.519531 181.210938 154.847656 182.183594 156.394531 184.128906 C 157.953125 186.078125 158.730469 188.75 158.730469 192.15625 Z M 193.242188 204 L 195.710938 204 L 195.710938 213.207031 L 180.890625 213.207031 L 180.890625 209.390625 C 180.070312 210.585938 178.921875 211.65625 177.445312 212.589844 C 175.964844 213.527344 174.15625 213.992188 172.023438 213.992188 C 169.214844 213.992188 167.007812 213.246094 165.398438 211.746094 C 163.789062 210.25 162.984375 208.136719 162.984375 205.40625 C 162.984375 198.332031 168.992188 194.703125 181.003906 194.515625 C 180.890625 193.242188 180.40625 192.371094 179.542969 191.898438 C 178.683594 191.433594 177.226562 191.203125 175.167969 191.203125 C 173.484375 191.203125 171.679688 191.378906 169.753906 191.730469 C 167.824219 192.089844 166.054688 192.570312 164.445312 193.167969 L 164.445312 182.839844 C 166.429688 182.351562 168.582031 181.960938 170.898438 181.660156 C 173.21875 181.359375 175.484375 181.210938 177.691406 181.210938 C 183.269531 181.210938 187.253906 182.222656 189.648438 184.242188 C 192.042969 186.261719 193.242188 189.386719 193.242188 193.617188 Z M 180.890625 200.410156 L 180.890625 200.070312 C 179.207031 200.070312 177.910156 200.296875 176.996094 200.746094 C 176.074219 201.195312 175.617188 201.941406 175.617188 202.992188 C 175.617188 203.628906 175.8125 204.140625 176.210938 204.527344 C 176.601562 204.925781 177.148438 205.125 177.859375 205.125 C 178.832031 205.125 179.582031 204.710938 180.105469 203.890625 C 180.628906 203.066406 180.890625 201.90625 180.890625 200.410156 Z M 220.972656 213.207031 L 204.242188 213.207031 L 197.171875 191.203125 L 194.8125 191.203125 L 194.8125 181.996094 L 212.160156 181.996094 L 212.160156 191.203125 L 209.800781 191.203125 L 212.777344 202.316406 L 213.335938 202.316406 L 216.3125 191.203125 L 213.953125 191.203125 L 213.953125 181.996094 L 230.234375 181.996094 L 230.234375 191.203125 L 227.875 191.203125 Z M 245.949219 178.910156 L 234.5 178.910156 L 234.5 169.535156 L 245.949219 169.535156 Z M 249.65625 213.207031 L 231.804688 213.207031 L 231.804688 204 L 234.273438 204 L 234.273438 191.203125 L 231.804688 191.203125 L 231.804688 181.996094 L 247.1875 181.996094 L 247.1875 204 L 249.65625 204 Z M 249.65625 213.207031 "/>
</g>
<path style=" stroke:none;fill-rule:nonzero;fill:rgb(36.862745%,73.72549%,40.392157%);fill-opacity:1;" d="M 111.441406 83.652344 L 182.320312 83.652344 L 182.320312 154.53125 L 111.441406 154.53125 Z M 111.441406 83.652344 "/>
<g clip-path="url(#clip2)" clip-rule="nonzero">
<use xlink:href="#surface5" mask="url(#mask0)"/>
</g>
<path style=" stroke:none;fill-rule:nonzero;fill:rgb(100%,100%,100%);fill-opacity:1;" d="M 146.847656 120.820312 C 154.671875 120.539062 162.496094 120.257812 170.320312 119.976562 C 168.863281 117.5625 168.496094 115.453125 165.707031 115.089844 C 161.535156 114.546875 157.359375 114.003906 153.183594 113.457031 C 145.085938 112.402344 136.988281 111.347656 128.890625 110.292969 C 129.617188 111.464844 140.945312 121.03125 146.847656 120.820312 Z M 146.847656 120.820312 "/>
<g clip-path="url(#clip4)" clip-rule="nonzero">
<path style=" stroke:none;fill-rule:nonzero;fill:rgb(100%,100%,100%);fill-opacity:1;" d="M 118.007812 95.871094 C 120.542969 100.0625 133.378906 109.195312 137.039062 109.664062 C 147.042969 110.953125 157.050781 112.238281 167.054688 113.527344 C 165.097656 110.289062 164.640625 108.125 161.101562 107.199219 C 155.960938 105.847656 150.816406 104.492188 145.671875 103.140625 C 136.453125 100.71875 127.230469 98.296875 118.007812 95.871094 Z M 118.007812 95.871094 "/>
</g>
<path style=" stroke:none;fill-rule:nonzero;fill:rgb(100%,100%,100%);fill-opacity:1;" d="M 154.449219 128.449219 C 160.460938 127.167969 166.476562 125.886719 172.488281 124.605469 C 171.316406 122.671875 171.316406 121.511719 169.125 121.609375 C 165.570312 121.765625 162.015625 121.925781 158.457031 122.082031 C 151.910156 122.375 145.359375 122.667969 138.808594 122.960938 C 139.546875 123.75 149.734375 129.457031 154.449219 128.449219 Z M 154.449219 128.449219 "/>
<g clip-path="url(#clip5)" clip-rule="nonzero">
<path style=" stroke:none;fill-rule:nonzero;fill:rgb(100%,100%,100%);fill-opacity:1;" d="M 168.640625 142.3125 C 171.945312 140.164062 172.832031 137.855469 174.714844 134.339844 C 176.820312 130.398438 175.4375 129.808594 173.085938 125.910156 C 172.84375 125.515625 169.710938 126.046875 169.359375 126.433594 C 168.929688 126.90625 169.214844 129.582031 169.1875 130.183594 C 169.003906 134.226562 168.820312 138.269531 168.640625 142.3125 Z M 168.640625 142.3125 "/>
</g>
<path style=" stroke:none;fill-rule:nonzero;fill:rgb(100%,100%,100%);fill-opacity:1;" d="M 167.871094 126.855469 C 165.679688 127.324219 162.902344 126.96875 162.34375 129.296875 C 161.550781 132.609375 160.757812 135.925781 159.964844 139.238281 C 165.304688 137.960938 167.683594 131.554688 167.871094 126.855469 Z M 167.871094 126.855469 "/>
<path style=" stroke:none;fill-rule:nonzero;fill:rgb(100%,100%,100%);fill-opacity:1;" d="M 161.125 128.402344 C 155.839844 129.527344 155.953125 131.0625 153.6875 136.011719 C 157.277344 135.671875 160.628906 131.761719 161.125 128.402344 Z M 161.125 128.402344 "/>
</g>
</svg>
